<svg xmlns="http://www.w3.org/2000/svg" xmlns:xlink="http://www.w3.org/1999/xlink" width="450" height="600" viewBox="0 0 450 600"><rect width="100%" height="100%" fill="#DDDDDD"/><path d="M95.28 305.43L108.70 305.43L108.70 291.00Q108.70 288.96 108.98 286.49L108.98 286.49L95.28 305.43ZM115.26 305.43L120.81 305.43L120.81 309.79Q120.81 310.40 120.42 310.84Q120.02 311.29 119.29 311.29L119.29 311.29L115.26 311.29L115.26 322.05L108.70 322.05L108.70 311.29L90.10 311.29Q89.34 311.29 88.76 310.81Q88.18 310.34 88.02 309.64L88.02 309.64L87.23 305.83L108.12 277.92L115.26 277.92L115.26 305.43ZM136.31 284.78L134.75 293.96Q136.21 293.66 137.56 293.52Q138.90 293.38 140.15 293.38L140.15 293.38Q143.63 293.38 146.28 294.42Q148.93 295.46 150.73 297.29Q152.53 299.12 153.45 301.57Q154.36 304.03 154.36 306.86L154.36 306.86Q154.36 310.37 153.13 313.27Q151.89 316.17 149.70 318.22Q147.50 320.28 144.50 321.41Q141.49 322.54 137.95 322.54L137.95 322.54Q135.88 322.54 134.02 322.11Q132.16 321.69 130.53 320.97Q128.89 320.25 127.51 319.32Q126.12 318.39 125.02 317.35L125.02 317.35L127.34 314.15Q128.07 313.12 129.26 313.12L129.26 313.12Q130.02 313.12 130.82 313.60Q131.61 314.09 132.63 314.67Q133.65 315.25 135.04 315.74Q136.43 316.23 138.38 316.23L138.38 316.23Q140.45 316.23 142.04 315.56Q143.63 314.88 144.68 313.68Q145.73 312.47 146.26 310.81Q146.80 309.15 146.80 307.20L146.80 307.20Q146.80 303.60 144.71 301.57Q142.62 299.54 138.53 299.54L138.53 299.54Q135.39 299.54 132.10 300.70L132.10 300.70L127.40 299.36L131.06 277.95L152.84 277.95L152.84 281.15Q152.84 282.77 151.83 283.77Q150.82 284.78 148.41 284.78L148.41 284.78L136.31 284.78ZM191.60 300.00L191.60 300.00Q191.60 305.76 190.37 310.02Q189.13 314.27 186.95 317.05Q184.77 319.83 181.80 321.18Q178.82 322.54 175.38 322.54L175.38 322.54Q171.93 322.54 168.99 321.18Q166.04 319.83 163.88 317.05Q161.71 314.27 160.49 310.02Q159.27 305.76 159.27 300.00L159.27 300.00Q159.27 294.21 160.49 289.97Q161.71 285.73 163.88 282.95Q166.04 280.18 168.99 278.82Q171.93 277.46 175.38 277.46L175.38 277.46Q178.82 277.46 181.80 278.82Q184.77 280.18 186.95 282.95Q189.13 285.73 190.37 289.97Q191.60 294.21 191.60 300.00ZM183.82 300.00L183.82 300.00Q183.82 295.21 183.12 292.07Q182.42 288.93 181.25 287.07Q180.07 285.21 178.55 284.46Q177.02 283.71 175.38 283.71L175.38 283.71Q173.76 283.71 172.25 284.46Q170.74 285.21 169.58 287.07Q168.42 288.93 167.74 292.07Q167.05 295.21 167.05 300.00L167.05 300.00Q167.05 304.79 167.74 307.93Q168.42 311.07 169.58 312.93Q170.74 314.79 172.25 315.54Q173.76 316.29 175.38 316.29L175.38 316.29Q177.02 316.29 178.55 315.54Q180.07 314.79 181.25 312.93Q182.42 311.07 183.12 307.93Q183.82 304.79 183.82 300.00ZM240.04 311.96L236.04 315.89L225.70 305.55L215.27 315.95L211.28 312.02L221.71 301.56L211.76 291.61L215.73 287.65L225.67 297.59L235.55 287.71L239.58 291.67L229.67 301.59L240.04 311.96ZM287.16 277.95L274.07 293.96L272.55 295.85Q273.83 295.21 275.31 294.86Q276.79 294.51 278.50 294.51L278.50 294.51Q281.00 294.51 283.36 295.33Q285.73 296.16 287.53 297.82Q289.32 299.48 290.42 301.95Q291.52 304.42 291.52 307.72L291.52 307.72Q291.52 310.80 290.39 313.50Q289.26 316.20 287.22 318.21Q285.18 320.22 282.29 321.38Q279.41 322.54 275.94 322.54L275.94 322.54Q272.40 322.54 269.59 321.41Q266.79 320.28 264.80 318.25Q262.82 316.23 261.77 313.37Q260.72 310.52 260.72 307.05L260.72 307.05Q260.72 303.93 261.98 300.66Q263.25 297.38 265.90 293.84L265.90 293.84L276.42 279.72Q276.97 278.99 278.02 278.47Q279.08 277.95 280.45 277.95L280.45 277.95L287.16 277.95ZM275.78 316.38L275.78 316.38Q277.58 316.38 279.09 315.77Q280.60 315.16 281.68 314.06Q282.77 312.96 283.38 311.48Q283.99 310.00 283.99 308.27L283.99 308.27Q283.99 306.37 283.41 304.86Q282.83 303.36 281.76 302.30Q280.69 301.25 279.20 300.70Q277.70 300.15 275.90 300.15L275.90 300.15Q274.11 300.15 272.64 300.76Q271.18 301.37 270.14 302.46Q269.10 303.54 268.52 305.02Q267.94 306.50 267.94 308.20L267.94 308.20Q267.94 310.03 268.45 311.54Q268.95 313.05 269.94 314.12Q270.93 315.19 272.40 315.78Q273.86 316.38 275.78 316.38ZM327.39 300.00L327.39 300.00Q327.39 305.76 326.15 310.02Q324.92 314.27 322.74 317.05Q320.56 319.83 317.58 321.18Q314.61 322.54 311.16 322.54L311.16 322.54Q307.72 322.54 304.77 321.18Q301.83 319.83 299.66 317.05Q297.50 314.27 296.28 310.02Q295.06 305.76 295.06 300.00L295.06 300.00Q295.06 294.21 296.28 289.97Q297.50 285.73 299.66 282.95Q301.83 280.18 304.77 278.82Q307.72 277.46 311.16 277.46L311.16 277.46Q314.61 277.46 317.58 278.82Q320.56 280.18 322.74 282.95Q324.92 285.73 326.15 289.97Q327.39 294.21 327.39 300.00ZM319.61 300.00L319.61 300.00Q319.61 295.21 318.91 292.07Q318.21 288.93 317.03 287.07Q315.86 285.21 314.33 284.46Q312.81 283.71 311.16 283.71L311.16 283.71Q309.55 283.71 308.04 284.46Q306.53 285.21 305.37 287.07Q304.21 288.93 303.52 292.07Q302.84 295.21 302.84 300.00L302.84 300.00Q302.84 304.79 303.52 307.93Q304.21 311.07 305.37 312.93Q306.53 314.79 308.04 315.54Q309.55 316.29 311.16 316.29L311.16 316.29Q312.81 316.29 314.33 315.54Q315.86 314.79 317.03 312.93Q318.21 311.07 318.91 307.93Q319.61 304.79 319.61 300.00ZM362.77 300.00L362.77 300.00Q362.77 305.76 361.53 310.02Q360.30 314.27 358.12 317.05Q355.94 319.83 352.96 321.18Q349.99 322.54 346.54 322.54L346.54 322.54Q343.10 322.54 340.15 321.18Q337.21 319.83 335.04 317.05Q332.88 314.27 331.66 310.02Q330.44 305.76 330.44 300.00L330.44 300.00Q330.44 294.21 331.66 289.97Q332.88 285.73 335.04 282.95Q337.21 280.18 340.15 278.82Q343.10 277.46 346.54 277.46L346.54 277.46Q349.99 277.46 352.96 278.82Q355.94 280.18 358.12 282.95Q360.30 285.73 361.53 289.97Q362.77 294.21 362.77 300.00ZM354.99 300.00L354.99 300.00Q354.99 295.21 354.29 292.07Q353.59 288.93 352.41 287.07Q351.24 285.21 349.71 284.46Q348.19 283.71 346.54 283.71L346.54 283.71Q344.93 283.71 343.42 284.46Q341.91 285.21 340.75 287.07Q339.59 288.93 338.90 292.07Q338.22 295.21 338.22 300.00L338.22 300.00Q338.22 304.79 338.90 307.93Q339.59 311.07 340.75 312.93Q341.91 314.79 343.42 315.54Q344.93 316.29 346.54 316.29L346.54 316.29Q348.19 316.29 349.71 315.54Q351.24 314.79 352.41 312.93Q353.59 311.07 354.29 307.93Q354.99 304.79 354.99 300.00Z" fill="#999999"/></svg>